<?xml version="1.0" encoding="UTF-8"?>
<svg id="Layer_2" data-name="Layer 2" xmlns="http://www.w3.org/2000/svg" viewBox="0 0 60 38.69">
  <defs>
    <style>
      .cls-1 {
        fill: #fff;
        stroke-width: 0px;
      }
    </style>
  </defs>
  <g id="Layer_1-2" data-name="Layer 1">
    <g>
      <path class="cls-1" d="m58.46,17.37c-2.26-5.14-7.18-7.92-12.73-7.34-.66.07-.93-.09-1.24-.64C38.96-.37,26.08-3.01,17.14,3.79c-3.02,2.3-5.05,5.33-6.12,8.97-.19.66-.47.98-1.16,1.17-3.96,1.09-7.21,3.15-8.86,7.11-.45,1.07-.67,2.24-1,3.36v2.8c.39,1.36.61,2.81,1.21,4.08,2.23,4.72,5.91,7.34,11.25,7.34,11.33,0,22.66.21,33.98-.08,6.35-.17,12.61-4.57,13.38-11.91.03-.31.13-.62.19-.93v-3.01c-.5-1.78-.81-3.64-1.54-5.31Zm-5.3,14.82c-2.29,1.74-4.81,2.93-7.78,2.93-11,0-22.01.03-33.01-.02-3.69-.01-6.36-1.84-7.87-5.17-1.49-3.26-1.4-6.49.92-9.4,1.83-2.3,4.48-3.13,7.24-3.58.89-.15,1.17-.52,1.32-1.32,1.19-6.06,4.72-10.12,10.72-11.55,6.07-1.45,11.35.2,15.35,5.19,1.23,1.53,2.32,3.18,3.51,4.82,3.73-1.1,7.09-.77,9.9,2.08,4.04,4.08,4,12.76-.3,16.03Z"/>
      <path class="cls-1" d="m32.46,19.1c-.87-.16-1.78-.14-2.67-.09-2.6.15-4.44,1.78-4.82,4.34-.15,1.05-.17,2.14-.06,3.19.35,3.14,2.32,4.85,5.56,4.94,3.36.1,5.42-1.45,6.01-4.57.11-.56.1-1.14.15-1.71.06-3.42-1.39-5.59-4.17-6.11Zm.43,8.08c-.31.98-.99,1.55-2.06,1.56-1.19.02-2.07-.42-2.27-1.55-.22-1.24-.25-2.55-.09-3.8.14-1.17,1.09-1.77,2.22-1.78,1.16,0,1.91.55,2.25,1.75.17.61.2,1.26.3,1.92-.11.63-.15,1.28-.34,1.89Z"/>
      <path class="cls-1" d="m41.51,28.63c.71-.64,1.21-1.03,1.64-1.49.79-.86,1.69-1.69,2.28-2.68,1.37-2.32.44-4.77-2.02-5.34-2.29-.53-4.38-.05-6.1,1.78.59.69,1.16,1.36,1.74,2.04.37-.26.65-.49.95-.67.78-.46,1.66-1.04,2.44-.23.84.87.09,1.7-.48,2.35-1.08,1.24-2.19,2.47-3.42,3.55-1.04.92-1.37,1.93-1.03,3.3h8.71v-2.61h-4.7Z"/>
      <path class="cls-1" d="m23.01,22.28c.33-.82.65-1.64.99-2.52-2.2-.91-4.34-1.24-6.44-.27-2.75,1.26-3.3,3.72-3.19,6.47.16,3.77,2.64,5.92,6.38,5.5,2.69-.3,2.86-.5,2.66-3.2,0-.03-.03-.06-.04-.1-1.75.39-3.6,1.54-5.11-.42-.94-1.22-.85-3.98.13-5.2,1.36-1.7,2.98-.7,4.61-.26Z"/>
    </g>
  </g>
</svg>