<?xml version="1.0" encoding="UTF-8"?>
<svg id="Layer_2" data-name="Layer 2" xmlns="http://www.w3.org/2000/svg" viewBox="0 0 60 59.58">
  <defs>
    <style>
      .cls-1 {
        fill: #fff;
        stroke-width: 0px;
      }
    </style>
  </defs>
  <g id="Layer_1-2" data-name="Layer 1">
    <g>
      <path class="cls-1" d="m57.4,11.89c-.61,0-.83-.2-.82-.82.03-1.58.02-3.15,0-4.73-.01-.95-.55-1.52-1.38-1.54-.86-.01-1.41.58-1.42,1.56,0,1.58-.02,3.15,0,4.73,0,.57-.16.81-.76.79-.89-.04-1.79-.05-2.68,0-.67.04-.92-.17-.9-.87.04-1.53.03-3.06,0-4.59-.01-1.02-.61-1.66-1.47-1.63-.87.03-1.41.66-1.41,1.68,0,1.53-.03,3.06.01,4.59.01.6-.14.86-.78.81-.65-.05-1.32,0-1.98,0-.54,0-.84.31-.93.79-.07.39-.07.8,0,1.19.08.48.37.84.91.79.61-.05.68.28.7.77.03,1.1.05,2.21.18,3.3.18,1.47.85,2.72,2.19,3.42.82.43,1.74.66,2.63.93.4.12.58.25.58.7.02,2.42.09,4.85.11,7.27.03,4.55-.52,9-2.58,13.14-.57,1.16-1.25,2.26-1.97,3.54-.19-.41-.3-.59-.36-.78-.57-2.05-1.11-4.11-1.68-6.17-.5-1.83-1.03-3.65-1.54-5.48-.17-.61-.56-.86-1.19-.86-8.89,0-17.79,0-26.68,0-.69,0-1.04.34-1.21.95-1.1,3.97-2.18,7.95-3.28,11.93-.13.48-.31.94-.51,1.56-.41-.49-.73-.83-1.01-1.2-3.45-4.68-5.17-9.92-4.9-15.74.08-1.8.37-3.59.6-5.38.05-.42.14-.86.76-.93,2.25-.23,4.44-.76,6.52-1.66,2.85-1.24,5.21-3.07,6.67-5.9,2-3.87,1.86-7.94.91-12.02-.48-2.05-1.21-4.03-1.83-6.05h-.71c-2.12,1.29-4.25,2.55-6.34,3.88-1.7,1.07-3.41,2.14-5.02,3.34C2.34,9.09.63,11.55,0,14.68v4.09c.48,1.71.96,3.41,1.42,5.12.06.22.06.48-.01.69-.99,2.94-1.18,5.97-1.08,9.04.23,7.6,3.11,14.03,8.64,19.22,2.93,2.74,6.36,4.69,10.23,5.83,1.16.34,2.36.6,3.54.89h9.04c2.73-.59,5.39-1.4,7.86-2.76,5.48-3,9.23-7.48,11.54-13.26,1.92-4.8,2.07-9.84,2.06-14.9,0-1.48-.06-2.96-.09-4.44-.02-1.07,0-1.07,1.04-1.25,2.01-.34,3.52-1.4,4.13-3.37.34-1.1.36-2.31.42-3.47.07-1.3.02-1.3,1.28-1.59v-2.54c-.87-.04-1.73-.12-2.6-.11ZM7.01,15.49c1.76-2.45,3.69-4.79,5.51-7.2.8-1.06,1.52-2.18,2.32-3.34,0,.25.04.47,0,.67-.76,3.82-2.23,7.27-4.96,10.15-1.68,1.77-3.24,3.65-4.85,5.48-.09.1-.2.17-.46.38.36-2.39,1.18-4.38,2.45-6.14Zm36.37,28.89c.03.16.07.31.13.57-1.48,0-2.9,0-4.32-.01-.12,0-.32-.16-.34-.27-.13-.56-.21-1.14-.33-1.84h2.94q1.58,0,1.92,1.55Zm-1.32-4.68c.19.54.34,1.1.54,1.81-1.43,0-2.69,0-3.96-.01-.14,0-.37-.16-.4-.29-.14-.56-.23-1.13-.36-1.83,1.37,0,2.61,0,3.84.01.11,0,.28.18.33.31Zm-9.08,10.53c-.22-.01-.56-.28-.59-.48-.15-.92-.2-1.87-.31-2.8-.06-.5.09-.72.64-.71,1.5.03,3.01.01,4.51,0,.35,0,.65.03.72.48.15.92.33,1.85.51,2.76.11.53-.02.79-.62.76-.8-.04-1.6,0-2.4,0h0c-.82,0-1.65.03-2.47-.03Zm7.65-14.89c.12,0,.3.21.35.36.23.73.42,1.47.68,2.4-1.34,0-2.5.01-3.67-.01-.14,0-.37-.19-.4-.32-.17-.77-.28-1.55-.44-2.43,1.24,0,2.36-.01,3.48.02Zm-3.28,8.12c.07.46.12.92.19,1.45-.3.02-.55.04-.8.05-1.41,0-2.82,0-4.22,0-.46,0-.67-.12-.7-.62-.09-1.52-.11-1.52,1.43-1.52,1.1,0,2.21.03,3.31-.01.52-.02.73.2.8.65Zm-.78-3.89c.15.6.25,1.21.39,1.93-1.78,0-3.41,0-5.05-.01-.12,0-.32-.14-.35-.25-.1-.48-.18-.97-.19-1.46,0-.14.27-.39.42-.39,1.46-.03,2.91-.02,4.37,0,.14,0,.37.1.4.2Zm-5.05-4.26c1.27,0,2.53,0,3.8,0,.15,0,.42.05.44.12.2.81.36,1.63.49,2.46,0,.04-.34.2-.53.2-.66.03-1.31,0-1.97,0-.66,0-1.32.04-1.97-.02-.22-.02-.55-.29-.59-.49-.13-.59-.13-1.21-.19-1.81-.04-.39.17-.47.51-.47Zm-6.75,2.11c.29-2.1.27-2.11,2.39-2.11.66,0,1.32-.03,1.97.02.19.01.48.21.52.38.13.59.17,1.21.26,1.81.06.43-.13.6-.55.59-.68-.01-1.36,0-2.04,0-.63,0-1.27-.01-1.9,0-.5.01-.71-.11-.64-.69Zm1.28,1.94c1.11,0,2.21.02,3.32,0,.52-.01.76.15.81.7.12,1.45.14,1.45-1.33,1.45-1.25,0-2.49,0-3.74,0-.25,0-.5-.03-.76-.04-.02-.16-.05-.25-.05-.34,0-1.7.07-1.76,1.75-1.76Zm-1.57,3.48c1.83-.02,3.66-.02,5.5,0,.16,0,.43.26.47.44.1.5.1,1.02.15,1.6h-6.86c.11-.64.18-1.19.32-1.74.04-.14.28-.31.43-.31Zm-5.66-5.31c.14-.44.3-.9.32-1.36.04-.78.47-.88,1.12-.86,1.12.04,2.24.01,3.52.01-.12.91-.2,1.69-.34,2.46-.02.13-.3.31-.46.31-1.24.03-2.48.02-3.72.02-.39,0-.55-.16-.42-.58Zm1.51,1.83c.77,0,1.55.02,2.32,0,.45-.01.59.19.52.6-.09.48-.18.96-.29,1.5h-4.88c-.02-.11-.06-.19-.04-.24q.44-1.85,2.38-1.85Zm1.73,5.59c-1.57.01-3.14,0-4.71-.01-.06,0-.12-.05-.18-.08,0-.03-.02-.06-.02-.08q.38-1.95,2.33-1.95h3.24c-.09.67-.15,1.26-.27,1.84-.02.12-.26.28-.4.29Zm.12,1.93c-.15.9-.24,1.81-.33,2.72-.04.47-.26.67-.72.66-.8-.01-1.59,0-2.39,0-.73,0-1.45-.02-2.18,0-.46.02-.68-.14-.57-.61.22-.96.45-1.91.67-2.87.09-.37.28-.54.69-.53,1.43.02,2.86.02,4.29,0,.46,0,.62.14.54.63Zm-8.57-9.36c.03-.11.08-.22.12-.33.19-.59.21-1.45.62-1.72.49-.32,1.31-.14,1.98-.15.51-.01,1.02,0,1.66,0-.19.89-.33,1.67-.54,2.42-.04.16-.34.35-.52.36-.96.04-1.92.01-2.89.02-.43,0-.53-.22-.42-.59Zm-1.01,3.75q.51-1.92,2.5-1.92h1.96c-.16.7-.28,1.3-.44,1.9-.03.1-.21.22-.32.23-1.22.02-2.43.01-3.65.01-.04-.17-.05-.19-.05-.21Zm-.51,1.86c.04-.12.23-.28.35-.28,1.23-.02,2.47-.01,3.81-.01-.16.7-.27,1.28-.43,1.86-.03.11-.24.25-.37.25-1.24.02-2.47.01-3.86.01.19-.71.32-1.27.5-1.82Zm-1.34,7.13c-.43,0-.6-.15-.46-.6.3-1.01.55-2.03.86-3.04.05-.15.28-.33.44-.34,1.24-.03,2.48-.02,3.9-.02-.32,1.33-.59,2.53-.91,3.72-.03.13-.33.25-.51.26-1.1.02-2.21,0-3.31.02Zm15.44,2.46c-.05.75-.03,1.5,0,2.25.01.44-.14.64-.61.63-2-.02-4,.1-5.99-.05-.99-.08-1.97-.57-2.88-1.02-1.17-.58-2.27-1.31-3.39-1.98-.21-.12-.38-.3-.58-.45.02-.05.04-.1.05-.16.22-.01.44-.04.66-.04,3.97,0,7.94.01,11.91-.02.65,0,.87.19.83.84Zm.9-2.47c-1.13,0-2.26,0-3.39,0-.51,0-.72-.13-.61-.71.18-.9.29-1.81.38-2.72.04-.42.2-.58.61-.58,2.05,0,4.09,0,6.14.02.18,0,.48.28.51.47.15.97.22,1.96.33,2.94.05.45-.18.57-.58.57-1.13,0-2.26,0-3.38,0Zm9.79,4.64c-1.13.56-2.28.79-3.53.72-1.12-.06-2.25-.01-3.38-.01q-1.07,0-1.07-1.03c0-.59.04-1.18-.01-1.76-.07-.71.17-.94.9-.93,2.44.04,4.89.02,7.33.02,1.17,0,2.35,0,3.52,0,.23,0,.46.02.69.03.02.06.03.12.05.18-1.37,1.13-2.91,1.99-4.5,2.78Zm7.54-4.64c-1.34,0-2.68.02-4.02-.02-.21,0-.56-.28-.6-.48-.26-1.09-.44-2.2-.67-3.44.44-.02.79-.05,1.13-.05.68,0,1.36,0,2.04,0q1.65,0,2.07,1.61c.15.59.3,1.18.48,1.76.13.42.04.63-.43.63Z"/>
      <path class="cls-1" d="m20.88,32.91c2.23-.03,4.47-.01,6.7-.01,2.23,0,4.47-.02,6.7.01.58,0,.76-.18.82-.74.15-1.48.01-2.9-.61-4.27-1.65-3.63-5.95-5.35-9.64-3.96-2.77,1.05-5.32,4.04-4.89,8.12.07.63.28.85.91.84Z"/>
      <path class="cls-1" d="m15.08,30.11c-.53.01-.83.31-.81.85.02.55.37.78.87.81.35.02.7,0,1.06,0,.35,0,.71.03,1.05,0,.5-.06.84-.37.84-.87,0-.47-.32-.77-.82-.77-.73-.01-1.45-.02-2.18,0Z"/>
      <path class="cls-1" d="m26.96,20.79c0,.52.3.78.79.8.5.01.81-.3.84-.77.04-.75.04-1.5,0-2.25-.02-.51-.32-.81-.88-.78-.51.03-.76.32-.76.82,0,.35,0,.7,0,1.05,0,.37,0,.75,0,1.12Z"/>
      <path class="cls-1" d="m19.34,26.24c.15-.21.17-.77.02-.88-.77-.59-1.61-1.08-2.48-1.64-.34.27-.7.42-.79.67-.09.24,0,.73.19.85.71.49,1.46.92,2.24,1.28.2.09.68-.08.82-.28Z"/>
      <path class="cls-1" d="m22.96,22.74c.21-.2.42-.66.33-.88-.33-.77-.75-1.51-1.24-2.18-.14-.2-.64-.25-.93-.18-.22.05-.35.42-.6.75.56.88,1.07,1.73,1.66,2.53.09.13.64.11.79-.03Z"/>
      <path class="cls-1" d="m33.08,23.02c.1-.07.39-.18.53-.38.4-.6.77-1.23,1.09-1.87.22-.44.11-.86-.34-1.15-.46-.3-.8-.06-1.02.27-.44.66-.85,1.34-1.2,2.05-.27.56.16,1.1.94,1.09Z"/>
      <path class="cls-1" d="m36.92,26.82c.67-.33,1.31-.71,1.95-1.1.42-.26.64-.64.36-1.12-.27-.47-.73-.51-1.16-.29-.65.32-1.27.69-1.87,1.08-.21.14-.31.42-.38.51,0,.79.57,1.19,1.11.92Z"/>
      <path class="cls-1" d="m37.87,30.45c-.52.01-.76.35-.76.83,0,.48.25.8.77.81.35,0,.7,0,1.05,0,.37,0,.75,0,1.12,0,.54,0,.92-.33.83-.81-.05-.31-.48-.74-.79-.79-.73-.12-1.49-.05-2.24-.04Z"/>
    </g>
  </g>
</svg>