<?xml version="1.0" encoding="UTF-8"?>
<svg id="Layer_2" data-name="Layer 2" xmlns="http://www.w3.org/2000/svg" viewBox="0 0 60 79.48">
  <defs>
    <style>
      .cls-1 {
        fill: #fff;
        stroke-width: 0px;
      }
    </style>
  </defs>
  <g id="Layer_1-2" data-name="Layer 1">
    <g>
      <path class="cls-1" d="m46.04,66.38c0-20.82,0-41.63,0-62.45,0-2.75-1.36-3.91-4.57-3.92-10.81-.01-21.61-.01-32.42,0-3.45,0-4.74,1.19-4.74,4.33,0,20.59,0,41.17,0,61.76v1.57h41.63c.04-.5.1-.9.1-1.29Zm-12.91-9.27c-2.32,3.42-7.14,4.84-11.28,3.38-4.21-1.48-6.87-5.41-5.81-9.27.63-2.3,1.92-4.48,3.11-6.62,1.78-3.18,3.74-6.29,5.63-9.42.11-.19.3-.35.3-.35,2.54,3.98,5.14,7.94,7.61,11.96,2.05,3.34,2.82,6.82.44,10.33Zm10.04-32.09c-.02,2.36-1.15,3.28-3.86,3.29-4.69.01-9.39,0-14.08,0-4.69,0-9.39.01-14.08,0-2.82,0-3.85-.91-3.86-3.42-.02-5.82-.02-11.65,0-17.47,0-2.29,1.06-3.29,3.62-3.29,9.58-.02,19.16-.02,28.74,0,2.36,0,3.51,1.08,3.52,3.25.03,5.88.04,11.76,0,17.64Z"/>
      <path class="cls-1" d="m46.82,69.91c-12.93,0-25.86,0-38.79,0-1.8,0-3.6-.02-5.4,0-1.7.02-2.63.79-2.62,2.36,0,1.38,0,2.77,0,4.15,0,2.45.65,3.04,3.42,3.04,7.27,0,14.54,0,21.81,0,7.33,0,14.67.01,22,0,2.48,0,3.22-.68,3.25-2.89.02-1.15.02-2.31,0-3.46-.01-2.64-.66-3.21-3.67-3.21Z"/>
      <path class="cls-1" d="m59.52,23.87v-2.06h-2.8c-.04.59-.09,1.04-.09,1.49,0,8.08,0,16.15,0,24.23,0,2.6.06,5.19-.02,7.79-.09,3.11-2.16,4.86-5.64,4.89-1.01,0-2.01,0-3.03,0v2.42c7.69,1.38,11.79-2.98,11.66-8.12-.27-10.21-.08-20.42-.08-30.63Z"/>
      <path class="cls-1" d="m59.97,14.01c0-.31-.24-.67-.49-.9-1.9-1.78-3.84-3.53-5.66-5.2-1.07.87-1.95,1.58-3.02,2.45,3.33,2.56,6.79,5.07,5.05,9.77h4.14c0-2.11.02-4.12-.02-6.12Z"/>
      <path class="cls-1" d="m29.95,12.55c2.86,1.13,2.99,1.1,5.22-1.21-4.63-3.21-9.76-4.11-15.21-2.35-5.92,1.92-9.43,5.8-10.31,11.47-.12.74-.58,1.78.96,1.73,1.18-.04,2.66.64,2.96-1.42,1.01-6.98,9.25-11.04,16.38-8.22Z"/>
      <path class="cls-1" d="m36.13,12.23c-4.07,2.88-8.16,5.74-12.22,8.64-1.14.82-1.37,1.89-.3,2.82,1.04.91,2.23.79,3.16-.26,3.22-3.64,6.42-7.3,9.63-10.95-.09-.08-.18-.17-.27-.25Z"/>
      <path class="cls-1" d="m35.04,15.68c.88,2.33,1.62,4.32,2.43,6.46h3.46c-.09-3.5-1.24-6.34-3.73-8.96-.9,1.05-1.67,1.94-2.16,2.51Z"/>
      <path class="cls-1" d="m18.72,49.42c-.62,1.15-.59,2.69-.45,4.01.06.58,1.11,1.49,1.76,1.53,1.29.07,1.39-1.01,1.16-1.9-.67-2.61.18-4.98,1.27-7.35.7-1.52,1.33-3.06,1.99-4.59-.14-.06-.29-.12-.43-.18-1.79,2.82-3.73,5.56-5.29,8.48Z"/>
    </g>
  </g>
</svg>