<?xml version="1.0" encoding="UTF-8"?>
<svg id="Layer_2" data-name="Layer 2" xmlns="http://www.w3.org/2000/svg" viewBox="0 0 60 70.3">
  <defs>
    <style>
      .cls-1 {
        fill: #fff;
        stroke-width: 0px;
      }
    </style>
  </defs>
  <g id="Layer_1-2" data-name="Layer 1">
    <g>
      <path class="cls-1" d="m59.73,49.28c-.27-.67-.29-1.31-.02-1.99.54-1.33.29-2.44-.8-3.44-.39-.35-.65-.98-.72-1.51-.18-1.38-.75-2.36-2.17-2.69-.63-.15-1.06-.52-1.39-1.09-.25-.43-.58-.88-.98-1.16-.44-.31-.59-.63-.59-1.14.01-6.29.01-12.58.01-18.87,0-4.62-.01-9.25,0-13.87,0-1.01-.28-1.87-1.02-2.57C51.29.22,50.35,0,49.35,0c-4.09,0-8.17,0-12.26,0-11.11,0-22.22,0-33.33,0-1.21,0-2.26.36-3.03,1.34C.12,2.12,0,3.03,0,3.98,0,13.76,0,23.55,0,33.34c0,4.04,0,8.07,0,12.11,0,5.8.02,11.6,0,17.4-.01,2.76,1.83,3.89,3.84,3.87,8.69-.06,17.37-.03,26.06-.03,3.4,0,6.8.02,10.2-.01.68,0,.93.21.86.88-.05.48-.01.98-.01,1.47,0,1.19.61,1.54,1.64.95,1.53-.88,3.07-1.73,4.57-2.65.61-.38,1.07-.35,1.66.02,1.48.91,3,1.75,4.5,2.61,1.15.65,1.63.37,1.63-.94,0-3.47,0-6.95,0-10.42,0-1.36,0-1.38,1.27-1.81,1.08-.36,1.75-1.03,1.85-2.21.06-.76.18-1.48.86-2.01,1.11-.88,1.3-2.02.79-3.29Zm-20.06,15.76c-11.79,0-23.59,0-35.38,0-2.16,0-2.59-.45-2.59-2.64,0-9.69,0-19.38,0-29.07,0-9.69,0-19.38,0-29.07,0-.39.03-.78.08-1.17.11-.73.54-1.19,1.28-1.31.31-.05.63-.08.95-.08,15.02,0,30.05,0,45.07,0,.48,0,.98.07,1.43.24.71.27.88.9.88,1.62,0,6.73,0,13.46,0,20.19,0,4.18,0,8.37,0,12.55,0,.82-.28,1.01-1.02.66-.44-.21-.9-.43-1.25-.75-.21-.19-.31-.59-.31-.89-.02-5.38-.01-10.77-.01-16.15,0-3.55,0-7.1,0-10.64,0-1.1-.04-1.14-1.08-1.36-.94-.2-1.56-.81-1.71-1.69-.18-1.01-.3-1.13-1.34-1.13-5.43,0-10.86,0-16.3,0-6.56,0-13.12,0-19.67,0-1.25,0-1.24,0-1.55,1.21-.23.89-.82,1.42-1.71,1.61-1,.21-1.07.28-1.07,1.29,0,7,0,14,0,21,0,9.52,0,19.04,0,28.56,0,1.34,0,1.33,1.29,1.65.88.22,1.35.84,1.52,1.69.19.96.31,1.08,1.29,1.08,10.4,0,20.8,0,31.2,0,1.48,0,1.29-.11,1.3,1.3,0,1.48.14,1.3-1.28,1.3Zm1.28-5.32c0,1.06,0,1.06-1.03,1.06-3.23,0-6.46,0-9.69,0-6.85,0-13.7-.01-20.55.01-.62,0-.89-.22-1.23-.74-.44-.69-1.09-1.31-1.77-1.76-.47-.32-.66-.57-.66-1.13.02-7.93.01-15.85.01-23.78,0-7.9,0-15.81-.01-23.71,0-.61.18-.91.72-1.24.66-.4,1.3-.99,1.67-1.66.36-.66.75-.82,1.42-.82,4.31.02,8.61,0,12.92,0,6.85,0,13.7,0,20.55,0,.66,0,1.13.06,1.4.83.3.86,1.01,1.43,1.86,1.77.39.15.57.34.57.79-.01,8.73,0,17.47-.03,26.2,0,.27-.24.61-.47.79-.73.57-1.51.89-2.51.68-1.26-.26-2.18.33-2.76,1.46-.32.62-.79,1.02-1.48,1.2-1.32.34-1.97,1.2-2.07,2.59-.04.53-.41,1.05-.7,1.54-.34.58-.74,1.13-1.16,1.66-.13.17-.4.34-.6.34-1.17.03-2.35.02-3.52.02-6.19,0-12.38,0-18.57,0-.34,0-.73-.03-1,.12-.28.15-.65.54-.61.77.05.29.42.61.73.75.29.13.67.06,1.01.06,7.29,0,14.58,0,21.87,0,1.24,0,1.43.26,1.06,1.44q-.37,1.19-1.66,1.19c-7.1,0-14.19,0-21.29,0-.34,0-.72-.07-1.02.06-.29.12-.67.43-.7.69-.03.26.28.66.55.81.29.16.71.13,1.07.13,7.39,0,14.78,0,22.17,0,.92,0,2.05.89,2.27,1.8,0,.02.01.05.01.07.04,1.79.85,2.93,2.66,3.34.23.05.48.52.52.82.08.6.02,1.22.02,1.83Zm12.29,8.19c-.28-.14-.51-.23-.73-.36-1.27-.73-2.55-1.44-3.81-2.2-.5-.3-.93-.3-1.43,0-1.24.74-2.49,1.45-3.74,2.16-.24.14-.51.25-.86.41v-8.39c.82-.04,1.58-.17,2.32-.1.48.04.96.32,1.39.58.9.54,1.85.8,2.75.19.99-.67,2.02-.89,3.18-.72.28.04.58,0,.92,0v8.4Zm4.53-16.52c-.81.67-1.28,1.52-1.29,2.6,0,.68-.3,1.15-1.03,1.3-1.09.23-1.81.92-2.31,1.87-.23.44-.52.79-1.09.7-1.33-.43-2.42.11-3.53.77-.29.18-.89.15-1.19-.04-1.04-.64-2.07-1.08-3.32-.76-.53.14-.95-.08-1.2-.6-.51-1.06-1.34-1.73-2.48-2-.59-.14-.83-.5-.85-1.11-.03-1.07-.4-2.01-1.28-2.69-.59-.46-.72-.99-.41-1.67.46-1.01.46-2.03,0-3.04-.3-.64-.19-1.16.38-1.61.91-.71,1.3-1.69,1.32-2.82.01-.55.27-.87.79-.99,1.17-.27,2.03-.94,2.54-2.03.27-.56.72-.73,1.27-.59,1.14.3,2.14-.02,3.04-.68.58-.43,1.1-.41,1.67,0,.91.66,1.9.98,3.03.68.66-.18,1.07.18,1.35.73.48.96,1.23,1.58,2.27,1.82.72.16,1.02.63,1.03,1.3,0,1.05.44,1.9,1.24,2.55.59.48.68,1.02.4,1.69-.43,1.02-.41,2.05.02,3.06.26.63.15,1.12-.37,1.56Z"/>
      <path class="cls-1" d="m19.07,22.56c.17-.72.08-1.42-.38-2.09-.94-1.4-1.8-2.85-2.69-4.29-.13-.21-.24-.44-.36-.68.16-.07.23-.13.29-.13,3.08-.01,6.16-.01,9.25-.02.43,0,.51.24.51.62-.01,2.32-.02,4.65,0,6.97,0,.52-.19.67-.68.68-.91.02-1.09.24-1.1,1.16,0,2.03,0,4.06,0,6.09,0,1.12,0,1.12-1.12,1.12-2.24-.01-2.28-.16-2.25,2.24.01,1.49.22,1.4-1.33,1.42-.84,0-1.05.21-1.06,1.04-.02.95,0,1.91,0,2.86,0,1.21.14,1.36,1.35,1.36,3.23,0,6.46,0,9.69,0,1.44,0,2.89,0,4.33,0,1.38,0,1.48-.09,1.48-1.44,0-.61,0-1.22,0-1.84,0-1.84-.01-1.85-1.8-1.98-.44-.03-.6-.2-.58-.64.02-.64.02-1.27,0-1.91-.02-.82-.3-1.1-1.11-1.11-.49,0-.98-.03-1.47,0-.6.04-.82-.17-.81-.79.03-2.15.02-4.31,0-6.46,0-.84-.25-1.14-1.07-1.12-.63.01-.8-.26-.8-.83.02-2.18.03-4.36,0-6.53,0-.7.24-.94.94-.93,2.81.03,5.63.01,8.44.02.21,0,.43.03.83.06-.22.39-.35.64-.51.88-.93,1.5-1.87,2.98-2.79,4.49-.17.28-.32.63-.3.95.11,2.54,2.17,4.74,4.52,4.89,2.98.19,5.2-1.45,5.75-4.18.14-.7.05-1.27-.33-1.86-1.28-2-2.54-4.01-3.77-6.04-.39-.65-.88-.89-1.62-.89-3.33.02-6.66.02-9.98,0-1.08,0-1.2.27-1.18-1.12.01-.57-.2-1.03-.78-1.04-.61-.01-.86.48-.9,1.05-.02.35,0,.71,0,1.12h-1.08c-3.38,0-6.75,0-10.13,0-.65,0-1.09.22-1.44.79-1.28,2.11-2.62,4.18-3.9,6.3-.22.37-.35.88-.32,1.3.21,2.56,2.43,4.67,5.08,4.68,2.54,0,4.55-1.54,5.17-4.16Zm20.13,2.49c-1.58.05-3.25-1.25-3.31-2.65h6.49c.03,1.32-1.52,2.59-3.18,2.65Zm-.05-8.93c.98,1.57,1.84,2.95,2.78,4.48h-5.58c.93-1.5,1.81-2.9,2.79-4.48Zm-6.88,21.2q1.05,0,1.04,1.08c0,.24-.03.48-.04.76h-13.41v-1.81c.27-.01.51-.04.75-.04,3.89,0,7.78,0,11.67,0Zm-2-3.67c.48,0,.64.18.66.64.07,1.31.03,1.36-1.28,1.36-2.15,0-4.3,0-6.44,0-1.02,0-.97-.01-1.03-1.17-.04-.82.39-.84.99-.82,1.15.03,2.29,0,3.44,0h0c1.22,0,2.44.02,3.66,0Zm-3.98-8.38c1.29,0,1.29-.02,1.28,1.25,0,1.56-.04,3.12.01,4.68.02.77-.38.82-.95.8-.57-.02-1.15.09-1.08-.83.07-.85.01-1.71.01-2.56h0c0-.88.02-1.76,0-2.63-.02-.55.2-.71.73-.71Zm-12.32-9.15c.96,1.54,1.83,2.94,2.82,4.52h-5.62c.94-1.52,1.81-2.93,2.8-4.52Zm-3.25,6.27h6.49c-.01,1.34-1.54,2.59-3.19,2.65-1.57.06-3.21-1.24-3.3-2.65Z"/>
      <path class="cls-1" d="m47.83,41.25c-3.73.01-6.88,3.21-6.88,6.97,0,3.96,3.15,7.04,7.17,7.03,3.77-.01,6.84-3.14,6.83-6.96-.01-4.03-3.07-7.05-7.13-7.04Zm.26,12.34c-3.03.01-5.45-2.35-5.47-5.34-.02-2.86,2.46-5.35,5.32-5.35,2.99,0,5.34,2.35,5.35,5.35,0,2.92-2.33,5.32-5.2,5.34Z"/>
      <path class="cls-1" d="m50.63,45.5c-.12.12-.23.25-.34.38-.99,1.14-1.98,2.27-3.03,3.47-.66-.52-1.28-.98-1.89-1.47-.47-.37-.94-.48-1.34.04-.37.49-.14.91.29,1.26.77.61,1.52,1.22,2.3,1.82.63.48,1.04.43,1.58-.18.6-.68,1.19-1.36,1.78-2.04.64-.74,1.28-1.47,1.91-2.22.33-.4.33-.82-.08-1.16-.4-.33-.82-.25-1.18.1Z"/>
    </g>
  </g>
</svg>