<?xml version="1.0" encoding="UTF-8"?>
<svg id="Layer_2" data-name="Layer 2" xmlns="http://www.w3.org/2000/svg" viewBox="0 0 65.42 67.55">
  <defs>
    <style>
      .cls-1 {
        fill: #fff;
        stroke-width: 0px;
      }
    </style>
  </defs>
  <g id="Layer_1-2" data-name="Layer 1">
    <g>
      <path class="cls-1" d="m5.74,49.42c5.88,0,11.77,0,17.65,0,.25,0,.56.08.73-.04.27-.18.59-.49.63-.77.02-.2-.35-.53-.62-.66-.23-.11-.55-.04-.83-.04-5.42,0-10.84,0-16.25,0h-1.15v-21.16h1.4c8.81,0,17.62,0,26.43,0q2.05,0,2.1,2c0,.06-.02.14,0,.18.23.3.44.8.73.86.58.12.78-.36.78-.89,0-.75,0-1.49,0-2.24,0-1.32-.13-1.45-1.44-1.45-10.06,0-20.11,0-30.17,0-1.25,0-1.41.15-1.41,1.39,0,7.15,0,14.3,0,21.45,0,1.26.12,1.38,1.4,1.38Z"/>
      <path class="cls-1" d="m40.57,55.92c.29-.06.68-.62.69-.96.05-3.27.06-6.54.01-9.8-.03-2.2-1.67-4-3.86-4.42-2.1-.4-4.24.72-5.13,2.71-.11.25-.22.5-.36.81-1.19-.39-2.32-.82-3.48-1.12-.57-.15-1.24-.19-1.81-.05-.52.14-.77.02-1.09-.34-1.61-1.81-3.22-3.62-4.88-5.39-.22-.23-.73-.19-1.1-.27-.03.39-.13.79-.08,1.17.03.21.29.39.46.57,1.58,1.76,3.18,3.5,4.74,5.28.19.22.31.6.29.89-.08,1.37.46,2.3,1.75,2.74,1.97.67,3.95,1.31,5.94,1.96.86.28,1.68.17,2.37-.42.85-.73,1.7-1.46,2.47-2.28.22-.23.32-.84.17-1.11-.29-.51-.79-.35-1.18.01-.74.67-1.45,1.36-2.22,2-.26.21-.71.45-.98.37-2.08-.63-4.15-1.3-6.19-2.06-.28-.1-.57-.81-.47-1.11.1-.29.67-.46,1.07-.6.16-.06.41.11.62.18,1.62.53,3.25,1.06,4.87,1.61.48.16.95.26,1.2-.3.26-.59-.09-.93-.63-1.13-.08-.03-.14-.11-.42-.33.55-.62.97-1.39,1.62-1.81,2.14-1.4,4.81.18,4.84,2.84.03,3.14,0,6.29,0,9.43,0,.55.15,1.1.79.97Z"/>
      <path class="cls-1" d="m36.28,40.09c2.67.03,4.61-1.86,4.64-4.54.03-2.52-2.01-4.59-4.52-4.6-2.56,0-4.59,1.99-4.61,4.52-.02,2.58,1.93,4.59,4.48,4.62Zm.11-7.62c1.52.02,3.07,1.53,3.04,2.98-.04,1.86-1.45,3.18-3.36,3.12-1.43-.05-2.72-1.5-2.7-3.04.02-1.65,1.42-3.07,3.02-3.05Z"/>
      <path class="cls-1" d="m6.54,63.62c2.53.03,4.62-2,4.64-4.51.02-2.49-1.96-4.56-4.43-4.62-2.61-.06-4.66,1.9-4.71,4.51-.05,2.52,1.97,4.59,4.51,4.62Zm.09-7.63c1.66.02,3,1.4,3,3.08,0,1.66-1.36,3.04-3.02,3.05-1.64.01-3.04-1.38-3.05-3.03,0-1.7,1.41-3.12,3.08-3.1Z"/>
      <path class="cls-1" d="m35.11,63.62c2.53,0,4.57-2.04,4.56-4.58,0-2.55-2.02-4.56-4.57-4.56-2.52,0-4.58,2.05-4.58,4.57,0,2.51,2.06,4.56,4.59,4.56Zm0-7.63c1.65,0,3.02,1.37,3.04,3.03.02,1.67-1.33,3.06-2.99,3.08-1.66.03-3.06-1.32-3.08-2.99-.03-1.72,1.33-3.12,3.03-3.13Z"/>
      <path class="cls-1" d="m20.92,54.48c-2.54-.02-4.61,2-4.63,4.52-.02,2.53,2,4.58,4.54,4.62,2.53.03,4.61-2.01,4.61-4.52,0-2.57-1.98-4.6-4.52-4.61Zm-.05,7.63c-1.65,0-3.05-1.4-3.05-3.04,0-1.69,1.42-3.1,3.11-3.08,1.64.02,3.02,1.45,3,3.09-.02,1.65-1.42,3.04-3.06,3.03Z"/>
      <path class="cls-1" d="m10.69,64.3c-1.37-.04-2.74,0-4.1,0h0c-1.4.01-2.8-.03-4.2.02-1.36.05-2.41,1.02-2.39,2.24,0,.33.39.65.6.97.29-.22.76-.4.82-.68.17-.76.58-1.03,1.31-1.03,2.58.01,5.16.01,7.74,0,.69,0,1.14.26,1.25.97.09.56.45.94.95.69.29-.15.54-.74.51-1.1-.13-1.22-1.14-2.03-2.48-2.07Z"/>
      <path class="cls-1" d="m25.06,64.31c-1.37-.04-2.73,0-4.1-.01-1.4,0-2.8-.03-4.2,0-1.4.03-2.51,1.01-2.49,2.25,0,.33.4.65.61.97.28-.22.74-.4.81-.68.2-.73.58-1.03,1.32-1.03,2.58.01,5.16.01,7.74,0,.68,0,1.07.26,1.28.95.1.31.55.51.84.76.21-.33.58-.66.59-.99.01-1.21-1.06-2.19-2.41-2.23Z"/>
      <path class="cls-1" d="m39.75,64.38c-3.1-.08-6.21-.07-9.31,0-1.04.03-1.91,1.06-1.93,2.08,0,.34.34.69.53,1.04.31-.22.81-.39.89-.68.22-.79.67-1.03,1.42-1.02,2.49.02,4.97.02,7.46,0,.78,0,1.3.18,1.48,1.06.05.26.56.62.83.6.27-.02.51-.46.63-.58-.02-1.33-.88-2.47-2-2.5Z"/>
      <path class="cls-1" d="m32.65,53.54c.73,0,.79-.55.78-1.12,0-.12,0-.25,0-.37,0-.19,0-.37,0-.56,0-.53-.23-1-.79-.88-.29.06-.56.53-.71.87-.11.26-.03.61-.02.92,0,.54.02,1.13.76,1.14Z"/>
      <path class="cls-1" d="m27.54,11.52h4.02c.55,0,1-.45,1-1s-.45-1-1-1h-4.02c-.55,0-1,.45-1,1s.45,1,1,1Z"/>
      <path class="cls-1" d="m17.06,20.13h4.02c.55,0,1-.45,1-1s-.45-1-1-1h-4.02c-.55,0-1,.45-1,1s.45,1,1,1Z"/>
      <path class="cls-1" d="m23.09,11.52h1.01c.55,0,1-.45,1-1s-.45-1-1-1h-1.01c-.55,0-1,.45-1,1s.45,1,1,1Z"/>
      <path class="cls-1" d="m27.96,17.93c-.55,0-1,.45-1,1s.45,1,1,1h1.01c.55,0,1-.45,1-1s-.45-1-1-1h-1.01Z"/>
      <path class="cls-1" d="m47.41,39.54c-.57.04-1.13.1-1.12.81.02.74.61.73,1.17.72,2.58-.06,5-.79,7.14-2.16,4.52-2.9,6.76-7.13,6.97-13.35-.23-.97-.63-2.75-1.07-4.52-.13-.52-.46-.94-1.08-.73-.63.22-.59.71-.36,1.23.05.11.09.23.13.35,1.25,3.62,1.09,7.14-.73,10.55-2.36,4.44-6.1,6.72-11.06,7.1Z"/>
      <path class="cls-1" d="m53.35,13.25c-2.01-.99-4.15-1.48-6.39-1.52-5.71-.06-11.11,3.36-13.43,8.5-.24.53-.5,1.11.23,1.43.68.29.92-.26,1.16-.75,3.37-6.83,10.86-9.48,17.74-6.27.51.24,1.04.45,1.36-.2.33-.66-.19-.95-.68-1.19Z"/>
      <path class="cls-1" d="m56.09,17c-.45.48-.89.95-1.34,1.43-2.61,2.75-5.22,5.5-7.89,8.32-1.62-1.61-3.16-3.15-4.7-4.68-.38-.38-.88-.7-1.25-.15-.17.25-.08.94.16,1.19,1.66,1.76,3.39,3.46,5.1,5.18.46.47.91.47,1.36-.01.62-.66,1.24-1.31,1.86-1.96,2.61-2.75,5.22-5.5,7.83-8.25.39-.41.76-.86.22-1.35-.52-.48-.97-.12-1.35.3Z"/>
      <path class="cls-1" d="m63.44,18.14c-.36-.78-.82-1.52-1.26-2.31.77-.68,1.51-1.34,2.26-1.99.53-.46.57-.93.1-1.45-.46-.51-.93-1.01-1.36-1.54-.52-.65-1.02-.7-1.64-.12-.7.66-1.44,1.27-2.01,1.77-2.11-1.29-4.11-2.51-6.2-3.79.17-.71.37-1.54.59-2.45.64.15,1.22.25,1.78.41.69.2,1.08-.07,1.24-.73.23-.94.45-1.88.69-2.81.16-.63-.04-1.02-.69-1.18-2.57-.63-5.14-1.26-7.7-1.91-.66-.17-1.01.1-1.17.72-.24.97-.48,1.93-.71,2.9-.14.59.08.97.67,1.12.6.15,1.19.31,1.86.49-.23.93-.45,1.79-.61,2.44-2.49.16-4.79.31-7.18.47-.31-.8-.67-1.69-1-2.6-.24-.67-.67-.84-1.31-.59-.69.27-1.39.55-2.09.79-.77.26-.9.76-.62,1.46.35.87.67,1.74.92,2.39-3.1,2.04-4.74,3.95-6.88,5.81l.32,1.3.71-.6s.03.03.05.04c.28.13.72,0,1.06-.1.17-.06.28-.32.42-.49,4.27-4.94,9.65-7.13,16.09-5.96,7.07,1.28,11.71,5.6,13.49,12.52,1.78,6.9-.39,12.79-5.81,17.36-3.4,2.87-7.46,4.01-11.91,3.73-.57-.04-1.15-.03-1.18.7-.03.71.55.79,1.12.82,7.06.33,12.77-2.28,16.7-8.15,3.91-5.83,4.22-12.08,1.26-18.47Zm-23.75-8.91c-.05.02-.1.04-.16.07-.1-.26-.2-.51-.29-.75-.19-.48-.36-.95-.56-1.45.39-.16.74-.3,1.18-.48.29.76.55,1.45.83,2.2-.35.14-.65.27-1.01.41Zm9.31-5.78c.16-.64.28-1.15.43-1.77,2.2.54,4.33,1.06,6.54,1.61-.07.31-.13.59-.2.88s-.13.58-.2.89c-.04-.01-.08-.02-.12-.03-1.71-.42-3.38-.83-5.09-1.25-.45-.11-.9-.22-1.36-.33Zm12.24,11.16c-.27-.3-.49-.54-.78-.85.09-.08.18-.16.28-.24.51-.45,1-.88,1.53-1.34.27.29.49.53.76.84-.48.43-.94.84-1.41,1.27-.12.11-.25.22-.38.34Z"/>
    </g>
  </g>
</svg>